<svg fill="none" height="94" viewBox="0 0 100 94" width="100" xmlns="http://www.w3.org/2000/svg">
    <path
        d="M70.5078 0.000353101C68.9971 0.000353101 67.4406 -0.0519906 66.4631 1.11793C66.4488 1.13473 66.4277 1.14156 66.4137 1.15914L47.7111 24.5365C46.7785 25.7039 46.8729 27.3832 47.9285 28.4388L63.4354 43.9457L47.9285 59.4525C47.3791 60.0019 47.0701 60.7457 47.0701 61.5238V72.7675L41.6342 56.4568L52.0713 46.017C53.2156 44.8726 53.2156 43.0185 52.0713 41.8742L36.1096 25.9125L46.4236 8.72633C47.2494 7.35113 46.7064 5.54606 45.5166 4.76676C45.4908 4.74996 45.4619 4.73883 45.4361 4.72203C45.4293 4.71774 45.4262 4.71051 45.4193 4.7066C45.4098 4.70094 45.3986 4.70152 45.3889 4.69586C40.6537 1.62926 35.1621 0.000353101 29.4922 0.000353101C13.3389 0.000353101 0 13.1439 0 29.2972C0 36.6271 2.91621 43.6453 7.85996 49.0584L47.8371 92.7976C47.8518 92.8136 47.874 92.8191 47.8891 92.8347C49.1037 94.1089 50.8893 93.9847 51.9928 92.9462C52.0332 92.9084 52.0728 92.8748 52.1111 92.8347C52.1262 92.8189 52.1482 92.8136 52.1631 92.7976L92.1402 49.0584C97.0838 43.6453 100 36.6271 100 29.2972C100 13.1439 86.6611 0.000353101 70.5078 0.000353101Z"
        fill="white" />
</svg>
