<svg fill="none" height="121" viewBox="0 0 96 121" width="96" xmlns="http://www.w3.org/2000/svg">
    <path clip-rule="evenodd"
        d="M69.7996 21.0018C69.6718 15.4802 67.4226 10.2117 63.5082 6.2972C59.4761 2.26517 54.0075 0 48.3054 0C42.6032 0 37.1346 2.26517 33.1026 6.2972C29.1885 10.2112 26.9395 15.479 26.8112 21H26.0034C21.2366 21 17.1324 24.3646 16.1976 29.0388L0.197591 109.039C-1.03999 115.227 3.69293 121 10.0034 121H85.6073C91.9178 121 96.6507 115.227 95.4131 109.039L79.4131 29.0388C78.4909 24.4276 74.4841 21.0909 69.7996 21.0018ZM65.7982 21C65.6709 16.54 63.8436 12.2895 60.6797 9.12563C57.3978 5.84374 52.9466 4 48.3054 4C43.6641 4 39.2129 5.84374 35.931 9.12563C32.7671 12.2895 30.9398 16.54 30.8125 21H65.7982ZM33 58C35.7614 58 38 55.7614 38 53C38 50.2386 35.7614 48 33 48C30.2386 48 28 50.2386 28 53C28 55.7614 30.2386 58 33 58ZM69.9927 91.1659C69.5472 86.277 67.4052 81.6737 63.9056 78.1741C59.9524 74.2209 54.5907 72 49 72C43.4093 72 38.0476 74.2209 34.0944 78.1741C30.5948 81.6737 28.4528 86.277 28.0073 91.1659C27.9112 92.2198 28.7783 93.0797 29.8366 93.0797C30.895 93.0797 31.742 92.2191 31.8593 91.1673C32.0388 89.5589 32.4441 87.9806 33.0658 86.4796C33.9326 84.3871 35.203 82.4857 36.8045 80.8842C38.406 79.2827 40.3073 78.0123 42.3998 77.1455C44.4923 76.2788 46.7351 75.8327 49 75.8327C51.2649 75.8327 53.5076 76.2788 55.6002 77.1455C57.6927 78.0123 59.594 79.2827 61.1955 80.8842C62.797 82.4857 64.0674 84.3871 64.9342 86.4796C65.5559 87.9806 65.9612 89.5589 66.1407 91.1673C66.258 92.2191 67.105 93.0797 68.1634 93.0797C69.2217 93.0797 70.0888 92.2198 69.9927 91.1659ZM70 53C70 55.7614 67.7614 58 65 58C62.2386 58 60 55.7614 60 53C60 50.2386 62.2386 48 65 48C67.7614 48 70 50.2386 70 53Z"
        fill="white" fill-rule="evenodd" />
</svg>
